<?xml version="1.0" encoding="utf-8"?>
<!-- Generator: Adobe Illustrator 24.0.0, SVG Export Plug-In . SVG Version: 6.00 Build 0)  -->
<svg version="1.1" id="katman_1" xmlns="http://www.w3.org/2000/svg" xmlns:xlink="http://www.w3.org/1999/xlink" x="0px" y="0px"
	 viewBox="0 0 105.2 14.8" style="enable-background:new 0 0 105.2 14.8;" xml:space="preserve">
<style type="text/css">
	.st0{fill:#FFFFFF;}
	.st1{fill:#BF64FE;}
</style>
<g>
	<path class="st0" d="M97.2,2.4h-0.3c0.8,1.6,0.9,4,0.9,4.9c0,0.9-0.1,3.3-0.9,4.9h0.3c2.7,0,2.9-3.8,2.9-4.9
		C100.1,6.3,99.9,2.4,97.2,2.4z"/>
	<path class="st0" d="M61.8,2.4h-0.3c-2.6,0-2.8,3.8-2.8,4.9c0,1.1,0.2,4.9,2.8,4.9h0.3c-0.7-1.6-0.8-4-0.8-4.9
		C60.9,6.5,61,4,61.8,2.4z"/>
	<path class="st1" d="M93.5,0c-9.4,0-18.9,0-28.3,0c-3.2,0-3.5,5.7-3.5,7.4s0.3,7.4,3.5,7.4c9.4,0,18.9,0,28.3,0
		c3.2,0,3.5-5.7,3.5-7.4S96.7,0,93.5,0z M73.3,12.2c0,0.9-0.9,1.6-2,1.6h-5.5c-3.3,0-3.3-12.9,0-12.9h5.5c1.1,0,2,0.7,2,1.6V12.2z
		 M84.1,12.2c0,0.9-0.9,1.6-2.1,1.6h-5.5c-1.1,0-2-0.7-2-1.6V2.5c0-0.9,0.9-1.6,2-1.6H82c1.1,0,2.1,0.7,2.1,1.6V12.2z M92.9,13.8
		h-5.5c-1.1,0-2-0.7-2-1.6V2.5c0-0.9,0.9-1.6,2-1.6h5.5C96.2,0.9,96.2,13.8,92.9,13.8z"/>
	<path class="st0" d="M11.1,12.7c-0.2,0-0.3-0.1-0.3-0.3V8.4c0-2.3,0.5-3.9,1.4-4.9c0.9-1,2.2-1.5,3.9-1.5h3.7
		c0.2,0,0.3,0.1,0.3,0.3v10c0,0.2-0.1,0.3-0.3,0.3h-2c-0.2,0-0.3-0.1-0.3-0.3v-1.6h-4v1.6c0,0.2-0.1,0.3-0.3,0.3H11.1z M17.4,4.4
		h-1.4c-0.9,0-1.5,0.3-2,0.9c-0.5,0.6-0.7,1.7-0.7,3.2h4V4.4z"/>
	<path class="st0" d="M65,11.4c-0.2,0-0.2-0.1-0.2-0.2v-3c0-1.8,0.3-3,1-3.7c0.7-0.7,1.7-1.1,3-1.1h2.8c0.2,0,0.2,0.1,0.2,0.2v7.6
		c0,0.2-0.1,0.2-0.2,0.2h-1.5c-0.2,0-0.2-0.1-0.2-0.2V9.9h-3.1v1.2c0,0.2-0.1,0.2-0.2,0.2H65z M69.8,5.1h-1.1
		c-0.7,0-1.2,0.2-1.5,0.7c-0.4,0.5-0.5,1.3-0.5,2.4h3.1V5.1z"/>
	<path class="st0" d="M9.4,10.7v1.7c0,0.2-0.1,0.3-0.3,0.3H4.9c-1.6,0-2.8-0.5-3.6-1.4C0.4,10.4,0,9.1,0,7.4c0-1.7,0.4-3,1.2-4
		c0.8-0.9,2-1.4,3.7-1.4h4.2c0.2,0,0.3,0.1,0.3,0.3v1.7c0,0.2-0.1,0.3-0.3,0.3H4.9c-0.6,0-1.2,0.2-1.5,0.7C2.9,5.5,2.8,6.3,2.8,7.3
		S2.9,9,3.3,9.6c0.4,0.5,0.9,0.8,1.6,0.8h4.2C9.3,10.4,9.4,10.5,9.4,10.7z"/>
	<path class="st0" d="M32.2,2.1h2c0.2,0,0.3,0.1,0.3,0.3v10c0,0.2-0.1,0.3-0.3,0.3h-2c-0.2,0-0.3-0.1-0.3-0.3v-10
		C31.9,2.2,32,2.1,32.2,2.1z"/>
	<path class="st0" d="M45.1,12.7h-2c-0.2,0-0.3-0.1-0.3-0.3V7.4c0-1.1-0.2-1.8-0.6-2.3c-0.4-0.5-0.9-0.7-1.5-0.7h-1.9v8
		c0,0.2-0.1,0.3-0.3,0.3h-2c-0.2,0-0.3-0.1-0.3-0.3v-10c0-0.2,0.1-0.3,0.3-0.3h4.2c1.6,0,2.7,0.5,3.5,1.4c0.8,0.9,1.2,2.3,1.2,4v4.9
		C45.4,12.6,45.3,12.7,45.1,12.7z"/>
	<path class="st0" d="M82.6,11.4h-1.5c-0.2,0-0.2-0.1-0.2-0.2V7.4c0-0.8-0.1-1.4-0.4-1.8c-0.3-0.4-0.7-0.6-1.2-0.6h-1.5v6.1
		c0,0.2-0.1,0.2-0.2,0.2h-1.5c-0.2,0-0.2-0.1-0.2-0.2V3.6c0-0.2,0.1-0.2,0.2-0.2h3.2c1.2,0,2.1,0.4,2.7,1.1c0.6,0.7,0.9,1.7,0.9,3
		v3.8C82.9,11.3,82.8,11.4,82.6,11.4z"/>
	<path class="st0" d="M48,11.5c-0.9-0.9-1.3-2.3-1.3-4.1c0-1.8,0.4-3.2,1.3-4.1c0.9-0.9,2.2-1.4,3.9-1.4s3,0.5,3.9,1.4
		c0.9,0.9,1.3,2.3,1.3,4.1c0,1.8-0.4,3.2-1.3,4.1c-0.9,0.9-2.2,1.4-3.9,1.4C50.2,12.9,48.9,12.4,48,11.5z M51.9,4.2
		c-0.8,0-1.4,0.3-1.9,0.8c-0.4,0.5-0.6,1.3-0.6,2.4c0,1,0.2,1.8,0.6,2.4c0.4,0.6,1.1,0.8,1.9,0.8c0.8,0,1.4-0.3,1.9-0.8
		c0.4-0.6,0.6-1.4,0.6-2.4c0-1-0.2-1.8-0.6-2.4C53.4,4.4,52.7,4.2,51.9,4.2z"/>
	<path class="st0" d="M25.4,6.2h1.4c1.4,0,2.4,0.3,3,0.9c0.6,0.6,1,1.4,1,2.4c0,1-0.3,1.8-1,2.4c-0.7,0.6-1.7,0.8-3,0.8h-5.1
		c-0.2,0-0.3-0.1-0.3-0.3v-1.7c0-0.2,0.1-0.3,0.3-0.3h5.1c0.8,0,1.3-0.3,1.3-0.9c0-0.6-0.4-1-1.3-1h-1.4c-1.4,0-2.4-0.3-3-0.9
		s-1-1.4-1-2.4c0-1,0.3-1.8,1-2.4c0.7-0.6,1.7-0.8,3-0.8h4.8c0.2,0,0.3,0.1,0.3,0.3v1.7c0,0.2-0.1,0.3-0.3,0.3h-4.8
		c-0.8,0-1.3,0.3-1.3,0.9C24.2,5.9,24.6,6.2,25.4,6.2z"/>
	<path class="st0" d="M91.2,9v2.2c0,0.2-0.1,0.2-0.2,0.2h-1.5c-0.2,0-0.2-0.1-0.2-0.2V9c-0.7-0.1-1.2-0.4-1.6-0.8
		c-0.6-0.6-0.9-1.3-0.9-2.3V3.6c0-0.2,0.1-0.2,0.2-0.2h1.5c0.2,0,0.2,0.1,0.2,0.2v2.3c0,0.5,0.2,0.8,0.5,1c0.3,0.2,0.7,0.4,1.2,0.4
		c0.5,0,0.8-0.1,1.1-0.4c0.2-0.2,0.4-0.6,0.4-1V3.6c0-0.2,0.1-0.2,0.2-0.2h1.5c0.2,0,0.2,0.1,0.2,0.2v2.3c0,1-0.3,1.8-0.8,2.3
		C92.5,8.6,91.9,8.9,91.2,9z"/>
	<polygon class="st0" points="99.7,6.6 102.8,2.5 103.5,3.1 99.6,8.2 	"/>
	<circle class="st0" cx="103.5" cy="2.2" r="1.7"/>
</g>
</svg>
