<?xml version="1.0" encoding="UTF-8"?>
<svg id="Layer_2" xmlns="http://www.w3.org/2000/svg" viewBox="0 0 772.82 224.45">
  <defs>
    <style>
      .cls-1 {
        fill: none;
        stroke: #006837;
        stroke-miterlimit: 10;
        stroke-width: 4px;
      }

      .cls-2 {
        fill: #009245;
      }

      .cls-3 {
        fill: #fff;
      }

      .cls-4 {
        fill: #006837;
      }
    </style>
  </defs>
  <g id="Layer_1-2" data-name="Layer_1">
    <g>
      <path class="cls-1" d="M178.28,44.91h525.22c37.15,0,67.32,30.16,67.32,67.32h0c0,37.15-30.16,67.32-67.32,67.32H178.28V44.91h0Z"/>
      <g>
        <path d="M293.47,109.51h21.75v22.94h-6.29l-1.64-4.19c-1.81,1.93-6.97,5.44-17.44,5.44-17.67,0-25.43-7.48-25.43-21.46,0-11.95,7.87-21.46,25.37-21.46,11.1,0,23.78,2.89,25.43,14.55h-15.23c-.91-3.11-3.28-5.83-9.63-5.83-8.32,0-12.01,5.66-12.01,12.8s3.68,12.69,12.01,12.69c6.63,0,10.08-2.49,11.38-7.08h-8.27v-8.38Z"/>
        <path d="M340.7,92.01h16.48l17.39,40.43h-14.44l-2.44-6.57h-17.67l-2.44,6.57h-14.44l17.56-40.43ZM348.92,102.2h-.11l-5.61,15.29h11.33l-5.61-15.29Z"/>
        <path d="M382.72,92.01h19.71l9.23,26.67h.11l9.23-26.67h19.71v40.43h-12.68v-30.24h-.11l-10.65,30.24h-11.1l-10.65-30.24h-.11v30.24h-12.69v-40.43Z"/>
        <path d="M454.53,92.01h40.49v8.72h-27.01v7.31h25.31v8.38h-25.31v7.31h27.01v8.72h-40.49v-40.43Z"/>
        <path d="M535.91,104.24c-1.36-6.23-6.51-9.8-12.4-9.8-10.7,0-15.23,8.95-15.23,17.78s4.53,17.78,15.23,17.78c7.48,0,12.23-5.78,12.97-12.97h3.85c-1.08,9.97-7.36,16.25-16.82,16.25-12.74,0-19.08-9.97-19.08-21.07s6.34-21.07,19.08-21.07c7.7,0,15.18,4.64,16.25,13.08h-3.85Z"/>
        <path d="M551.88,92.01h3.85v17.56h24.01v-17.56h3.85v40.43h-3.85v-19.59h-24.01v19.59h-3.85v-40.43Z"/>
        <path d="M597.41,92.01h27.92v3.28h-24.07v14.61h22.54v3.28h-22.54v15.97h24.35v3.28h-28.2v-40.43Z"/>
        <path d="M666.21,104.24c-1.36-6.23-6.51-9.8-12.4-9.8-10.7,0-15.23,8.95-15.23,17.78s4.53,17.78,15.23,17.78c7.48,0,12.23-5.78,12.97-12.97h3.85c-1.08,9.97-7.36,16.25-16.82,16.25-12.74,0-19.08-9.97-19.08-21.07s6.34-21.07,19.08-21.07c7.7,0,15.18,4.64,16.25,13.08h-3.85Z"/>
        <path d="M682.18,92.01h3.85v21.75l23.5-21.75h5.21l-18.07,16.71,18.91,23.73h-4.98l-16.82-21.07-7.76,7.19v13.87h-3.85v-40.43Z"/>
      </g>
      <g>
        <circle class="cls-3" cx="112.23" cy="112.23" r="84.8"/>
        <g>
          <polygon class="cls-4" points="132.01 159.35 92.81 159.35 56.71 91.06 95.91 91.06 132.01 159.35"/>
          <path class="cls-4" d="M112.23,224.45c-29.98,0-58.16-11.67-79.36-32.87C11.67,170.38,0,142.2,0,112.23S11.67,54.07,32.87,32.87C54.07,11.67,82.25,0,112.23,0s58.16,11.67,79.36,32.87c21.2,21.2,32.87,49.38,32.87,79.36s-11.67,58.16-32.87,79.36c-21.2,21.2-49.38,32.87-79.36,32.87ZM112.23,34.6c-42.8,0-77.62,34.82-77.62,77.62s34.82,77.62,77.62,77.62,77.62-34.82,77.62-77.62-34.82-77.62-77.62-77.62Z"/>
          <polygon class="cls-2" points="132.01 159.35 92.8 159.35 185.25 0 224.45 0 132.01 159.35"/>
        </g>
      </g>
    </g>
  </g>
</svg>